# xmcd
#
# Track frame offsets:
#	150
#	17710
#	36320
#	48247
#	67068
#
# Disc length: 1177
#
# Revision: 1
# Processed by: cddbd v1.5.1PL0 Copyright (c) Steve Scherf et al.
# Submitted via: ExactAudioCopy v0.90b4
# Normalized: r0:TRMNUM
#
DISCID=3f049705
DTITLE=Ally McBeal - One (5 Track Sampler)
DYEAR=2001
DGENRE=Pop
TTITLE0=Ally McBeal - Searching My Soul
TTITLE1=Ally McBeal - 100 Tears Away
TTITLE2=Ally McBeal -Will You marry Me
TTITLE3=Ally McBeal - Readf Your Mind
TTITLE4=Ally McBeal - Baby don't You break My Heart slow
EXTD=
EXTT0=
EXTT1=
EXTT2=
EXTT3=
EXTT4=
PLAYORDER=
